<svg version="1.1" xmlns="http://www.w3.org/2000/svg" xmlns:xlink="http://www.w3.org/1999/xlink" width="137.3798828125" height="122"><defs/><g><text fill="#eeeeee" stroke="none" font-family="Arial" font-size="24px" font-style="normal" font-weight="normal" text-decoration="none" x="0" y="0">UNREGISTERED</text><text fill="#eeeeee" stroke="none" font-family="Arial" font-size="24px" font-style="normal" font-weight="normal" text-decoration="none" x="0" y="30">UNREGISTERED</text><text fill="#eeeeee" stroke="none" font-family="Arial" font-size="24px" font-style="normal" font-weight="normal" text-decoration="none" x="0" y="60">UNREGISTERED</text><text fill="#eeeeee" stroke="none" font-family="Arial" font-size="24px" font-style="normal" font-weight="normal" text-decoration="none" x="0" y="90">UNREGISTERED</text><text fill="#eeeeee" stroke="none" font-family="Arial" font-size="24px" font-style="normal" font-weight="normal" text-decoration="none" x="0" y="120">UNREGISTERED</text><g transform="translate(-158,-294) scale(1,1)"><rect fill="#C0C0C0" stroke="none" x="175" y="311" width="117.3798828125" height="102" opacity="0.2"/></g><g transform="translate(-158,-294) scale(1,1)"><rect fill="#ffffff" stroke="none" x="168" y="304" width="117.3798828125" height="102"/></g><g transform="translate(-158,-294) scale(1,1)"><path fill="none" stroke="#000000" d="M 168 304 L 285.3798828125 304 L 285.3798828125 406 L 168 406 L 168 304 Z Z" stroke-miterlimit="10"/></g><g transform="translate(-158,-294) scale(1,1)"><path fill="none" stroke="#000000" d="M 168 329 L 285.3798828125 329" stroke-miterlimit="10"/></g><g transform="translate(-158,-294) scale(1,1)"><path fill="none" stroke="#000000" d="M 168 397 L 285.3798828125 397" stroke-miterlimit="10"/></g><g transform="translate(-158,-294) scale(1,1)"><g><path fill="none" stroke="none"/><text fill="#000000" stroke="none" font-family="Arial" font-size="13px" font-style="normal" font-weight="bold" text-decoration="none" x="202.134033203125" y="321.5">Product</text></g></g><g transform="translate(-158,-294) scale(1,1)"><g><path fill="none" stroke="none"/><text fill="#000000" stroke="none" font-family="Arial" font-size="13px" font-style="normal" font-weight="normal" text-decoration="none" x="173" y="344.5">-name: String</text></g></g><g transform="translate(-158,-294) scale(1,1)"><g><path fill="none" stroke="none"/><text fill="#000000" stroke="none" font-family="Arial" font-size="13px" font-style="normal" font-weight="normal" text-decoration="none" x="173" y="359.5">-price: Double</text></g></g><g transform="translate(-158,-294) scale(1,1)"><g><path fill="none" stroke="none"/><text fill="#000000" stroke="none" font-family="Arial" font-size="13px" font-style="normal" font-weight="normal" text-decoration="none" x="173" y="374.5">-description: String</text></g></g><g transform="translate(-158,-294) scale(1,1)"><g><path fill="none" stroke="none"/><text fill="#000000" stroke="none" font-family="Arial" font-size="13px" font-style="normal" font-weight="normal" text-decoration="none" x="173" y="389.5">-orders: OrderId</text></g></g></g></svg>