<svg version="1.1" xmlns="http://www.w3.org/2000/svg" xmlns:xlink="http://www.w3.org/1999/xlink" width="387.55712890625" height="92"><defs/><g><text fill="#eeeeee" stroke="none" font-family="Arial" font-size="24px" font-style="normal" font-weight="normal" text-decoration="none" x="0" y="0">UNREGISTERED</text><text fill="#eeeeee" stroke="none" font-family="Arial" font-size="24px" font-style="normal" font-weight="normal" text-decoration="none" x="0" y="30">UNREGISTERED</text><text fill="#eeeeee" stroke="none" font-family="Arial" font-size="24px" font-style="normal" font-weight="normal" text-decoration="none" x="0" y="60">UNREGISTERED</text><text fill="#eeeeee" stroke="none" font-family="Arial" font-size="24px" font-style="normal" font-weight="normal" text-decoration="none" x="0" y="90">UNREGISTERED</text><text fill="#eeeeee" stroke="none" font-family="Arial" font-size="24px" font-style="normal" font-weight="normal" text-decoration="none" x="200" y="0">UNREGISTERED</text><text fill="#eeeeee" stroke="none" font-family="Arial" font-size="24px" font-style="normal" font-weight="normal" text-decoration="none" x="200" y="30">UNREGISTERED</text><text fill="#eeeeee" stroke="none" font-family="Arial" font-size="24px" font-style="normal" font-weight="normal" text-decoration="none" x="200" y="60">UNREGISTERED</text><text fill="#eeeeee" stroke="none" font-family="Arial" font-size="24px" font-style="normal" font-weight="normal" text-decoration="none" x="200" y="90">UNREGISTERED</text><g transform="translate(-38,-94) scale(1,1)"><rect fill="#C0C0C0" stroke="none" x="55" y="119" width="119.55712890625" height="57" opacity="0.2"/></g><g transform="translate(-38,-94) scale(1,1)"><rect fill="#ffffff" stroke="none" x="48" y="112" width="119.55712890625" height="57"/></g><g transform="translate(-38,-94) scale(1,1)"><path fill="none" stroke="#000000" d="M 48 112 L 167.55712890625 112 L 167.55712890625 169 L 48 169 L 48 112 Z Z" stroke-miterlimit="10"/></g><g transform="translate(-38,-94) scale(1,1)"><path fill="none" stroke="#000000" d="M 48 137 L 167.55712890625 137" stroke-miterlimit="10"/></g><g transform="translate(-38,-94) scale(1,1)"><path fill="none" stroke="#000000" d="M 48 160 L 167.55712890625 160" stroke-miterlimit="10"/></g><g transform="translate(-38,-94) scale(1,1)"><g><path fill="none" stroke="none"/><text fill="#000000" stroke="none" font-family="Arial" font-size="13px" font-style="normal" font-weight="bold" text-decoration="none" x="83.22265625" y="129.5">Product</text></g></g><g transform="translate(-38,-94) scale(1,1)"><g><path fill="none" stroke="none"/><text fill="#000000" stroke="none" font-family="Arial" font-size="13px" font-style="normal" font-weight="normal" text-decoration="none" x="53" y="152.5">-product: ProductId</text></g></g><g transform="translate(-38,-94) scale(1,1)"><rect fill="#C0C0C0" stroke="none" x="303" y="111" width="119.55712890625" height="72" opacity="0.2"/></g><g transform="translate(-38,-94) scale(1,1)"><rect fill="#ffffff" stroke="none" x="296" y="104" width="119.55712890625" height="72"/></g><g transform="translate(-38,-94) scale(1,1)"><path fill="none" stroke="#000000" d="M 296 104 L 415.55712890625 104 L 415.55712890625 176 L 296 176 L 296 104 Z Z" stroke-miterlimit="10"/></g><g transform="translate(-38,-94) scale(1,1)"><path fill="none" stroke="#000000" d="M 296 129 L 415.55712890625 129" stroke-miterlimit="10"/></g><g transform="translate(-38,-94) scale(1,1)"><path fill="none" stroke="#000000" d="M 296 167 L 415.55712890625 167" stroke-miterlimit="10"/></g><g transform="translate(-38,-94) scale(1,1)"><g><path fill="none" stroke="none"/><text fill="#000000" stroke="none" font-family="Arial" font-size="13px" font-style="normal" font-weight="bold" text-decoration="none" x="334.101318359375" y="121.5">Similar</text></g></g><g transform="translate(-38,-94) scale(1,1)"><g><path fill="none" stroke="none"/><text fill="#000000" stroke="none" font-family="Arial" font-size="13px" font-style="normal" font-weight="normal" text-decoration="none" x="301" y="144.5">-product: ProductId</text></g></g><g transform="translate(-38,-94) scale(1,1)"><g><path fill="none" stroke="none"/><text fill="#000000" stroke="none" font-family="Arial" font-size="13px" font-style="normal" font-weight="normal" text-decoration="none" x="301" y="159.5">-occurrences: int</text></g></g><g transform="translate(-38,-94) scale(1,1)"><path fill="none" stroke="#000000" d="M 295 140 L 169 140" stroke-miterlimit="10"/></g><g transform="translate(-38,-94) scale(1,1)"><path fill="#000000" stroke="none" d="M 179.16267485762415 135.790482243984 L 169 140 L 179.16267485762415 144.209517756016 L 191 140"/></g><g transform="translate(-38,-94) scale(1,1)"><path fill="none" stroke="#000000" d="M 179.16267485762415 135.790482243984 L 169 140 L 179.16267485762415 144.209517756016 L 191 140 L 179.16267485762415 135.790482243984" stroke-miterlimit="10"/></g><g transform="translate(-38,-94) scale(1,1)"><g><path fill="none" stroke="none"/><text fill="#000000" stroke="none" font-family="Arial" font-size="13px" font-style="normal" font-weight="normal" text-decoration="none" x="238.5" y="162.5">-similars</text></g></g><g transform="translate(-38,-94) scale(1,1)"><g><path fill="none" stroke="none"/><text fill="#000000" stroke="none" font-family="Arial" font-size="13px" font-style="normal" font-weight="normal" text-decoration="none" x="270.5" y="131.5">*</text></g></g></g></svg>