<svg version="1.1" xmlns="http://www.w3.org/2000/svg" xmlns:xlink="http://www.w3.org/1999/xlink" width="130.14990234375" height="122"><defs/><g><text fill="#eeeeee" stroke="none" font-family="Arial" font-size="24px" font-style="normal" font-weight="normal" text-decoration="none" x="0" y="0">UNREGISTERED</text><text fill="#eeeeee" stroke="none" font-family="Arial" font-size="24px" font-style="normal" font-weight="normal" text-decoration="none" x="0" y="30">UNREGISTERED</text><text fill="#eeeeee" stroke="none" font-family="Arial" font-size="24px" font-style="normal" font-weight="normal" text-decoration="none" x="0" y="60">UNREGISTERED</text><text fill="#eeeeee" stroke="none" font-family="Arial" font-size="24px" font-style="normal" font-weight="normal" text-decoration="none" x="0" y="90">UNREGISTERED</text><text fill="#eeeeee" stroke="none" font-family="Arial" font-size="24px" font-style="normal" font-weight="normal" text-decoration="none" x="0" y="120">UNREGISTERED</text><g transform="translate(-54,-94) scale(1,1)"><rect fill="#C0C0C0" stroke="none" x="71" y="111" width="110.14990234375" height="102" opacity="0.2"/></g><g transform="translate(-54,-94) scale(1,1)"><rect fill="#ffffff" stroke="none" x="64" y="104" width="110.14990234375" height="102"/></g><g transform="translate(-54,-94) scale(1,1)"><path fill="none" stroke="#000000" d="M 64 104 L 174.14990234375 104 L 174.14990234375 206 L 64 206 L 64 104 Z Z" stroke-miterlimit="10"/></g><g transform="translate(-54,-94) scale(1,1)"><path fill="none" stroke="#000000" d="M 64 129 L 174.14990234375 129" stroke-miterlimit="10"/></g><g transform="translate(-54,-94) scale(1,1)"><path fill="none" stroke="#000000" d="M 64 197 L 174.14990234375 197" stroke-miterlimit="10"/></g><g transform="translate(-54,-94) scale(1,1)"><g><path fill="none" stroke="none"/><text fill="#000000" stroke="none" font-family="Arial" font-size="13px" font-style="normal" font-weight="bold" text-decoration="none" x="104.621337890625" y="121.5">User</text></g></g><g transform="translate(-54,-94) scale(1,1)"><g><path fill="none" stroke="none"/><text fill="#000000" stroke="none" font-family="Arial" font-size="13px" font-style="normal" font-weight="normal" text-decoration="none" x="69" y="144.5">-name: String</text></g></g><g transform="translate(-54,-94) scale(1,1)"><g><path fill="none" stroke="none"/><text fill="#000000" stroke="none" font-family="Arial" font-size="13px" font-style="normal" font-weight="normal" text-decoration="none" x="69" y="159.5">-email: String</text></g></g><g transform="translate(-54,-94) scale(1,1)"><g><path fill="none" stroke="none"/><text fill="#000000" stroke="none" font-family="Arial" font-size="13px" font-style="normal" font-weight="normal" text-decoration="none" x="69" y="174.5">-password: String</text></g></g><g transform="translate(-54,-94) scale(1,1)"><g><path fill="none" stroke="none"/><text fill="#000000" stroke="none" font-family="Arial" font-size="13px" font-style="normal" font-weight="normal" text-decoration="none" x="69" y="189.5">-orders: OrderId</text></g></g></g></svg>