<svg version="1.1" xmlns="http://www.w3.org/2000/svg" xmlns:xlink="http://www.w3.org/1999/xlink" width="206.98828125" height="107"><defs/><g><text fill="#eeeeee" stroke="none" font-family="Arial" font-size="24px" font-style="normal" font-weight="normal" text-decoration="none" x="0" y="0">UNREGISTERED</text><text fill="#eeeeee" stroke="none" font-family="Arial" font-size="24px" font-style="normal" font-weight="normal" text-decoration="none" x="0" y="30">UNREGISTERED</text><text fill="#eeeeee" stroke="none" font-family="Arial" font-size="24px" font-style="normal" font-weight="normal" text-decoration="none" x="0" y="60">UNREGISTERED</text><text fill="#eeeeee" stroke="none" font-family="Arial" font-size="24px" font-style="normal" font-weight="normal" text-decoration="none" x="0" y="90">UNREGISTERED</text><text fill="#eeeeee" stroke="none" font-family="Arial" font-size="24px" font-style="normal" font-weight="normal" text-decoration="none" x="200" y="0">UNREGISTERED</text><text fill="#eeeeee" stroke="none" font-family="Arial" font-size="24px" font-style="normal" font-weight="normal" text-decoration="none" x="200" y="30">UNREGISTERED</text><text fill="#eeeeee" stroke="none" font-family="Arial" font-size="24px" font-style="normal" font-weight="normal" text-decoration="none" x="200" y="60">UNREGISTERED</text><text fill="#eeeeee" stroke="none" font-family="Arial" font-size="24px" font-style="normal" font-weight="normal" text-decoration="none" x="200" y="90">UNREGISTERED</text><g transform="translate(-78,-158) scale(1,1)"><rect fill="#C0C0C0" stroke="none" x="95" y="175" width="186.98828125" height="87" opacity="0.2"/></g><g transform="translate(-78,-158) scale(1,1)"><rect fill="#ffffff" stroke="none" x="88" y="168" width="186.98828125" height="87"/></g><g transform="translate(-78,-158) scale(1,1)"><path fill="none" stroke="#000000" d="M 88 168 L 274.98828125 168 L 274.98828125 255 L 88 255 L 88 168 Z Z" stroke-miterlimit="10"/></g><g transform="translate(-78,-158) scale(1,1)"><path fill="none" stroke="#000000" d="M 88 193 L 274.98828125 193" stroke-miterlimit="10"/></g><g transform="translate(-78,-158) scale(1,1)"><path fill="none" stroke="#000000" d="M 88 246 L 274.98828125 246" stroke-miterlimit="10"/></g><g transform="translate(-78,-158) scale(1,1)"><g><path fill="none" stroke="none"/><text fill="#000000" stroke="none" font-family="Arial" font-size="13px" font-style="normal" font-weight="bold" text-decoration="none" x="163.793701171875" y="185.5">Order</text></g></g><g transform="translate(-78,-158) scale(1,1)"><g><path fill="none" stroke="none"/><text fill="#000000" stroke="none" font-family="Arial" font-size="13px" font-style="normal" font-weight="normal" text-decoration="none" x="93" y="208.5">-user: User</text></g></g><g transform="translate(-78,-158) scale(1,1)"><g><path fill="none" stroke="none"/><text fill="#000000" stroke="none" font-family="Arial" font-size="13px" font-style="normal" font-weight="normal" text-decoration="none" x="93" y="223.5">-products: Product</text></g></g><g transform="translate(-78,-158) scale(1,1)"><g><path fill="none" stroke="none"/><text fill="#000000" stroke="none" font-family="Arial" font-size="13px" font-style="normal" font-weight="normal" text-decoration="none" x="93" y="238.5">-creationDate: ZonedDateTime</text></g></g></g></svg>